<svg viewBox="0 0 680 700" width="100%" height="auto" style="display:block;max-width:100%;" xmlns="http://www.w3.org/2000/svg">
<defs>
    <style>
    .card { fill: #F4F7FC; stroke: #E1E8F5; stroke-width: 1; }
    .accent { fill: #0F3573; }
    .accent-light { fill: #3B78E0; }
    .title { font-family: -apple-system, 'Segoe UI', Helvetica, Arial, sans-serif; font-size: 16px; font-weight: 700; fill: #0F3573; }
    .desc { font-family: -apple-system, 'Segoe UI', Helvetica, Arial, sans-serif; font-size: 12.5px; fill: #4A5568; }
    .arrow { stroke: #90A4C8; stroke-width: 2.5; fill: none; }
    .arrowhead { fill: #90A4C8; }
    .badge { fill: #FFFFFF; font-family: -apple-system, 'Segoe UI', Helvetica, Arial, sans-serif; font-size: 13px; font-weight: 700; }
    .end-title { font-family: -apple-system, 'Segoe UI', Helvetica, Arial, sans-serif; font-size: 14px; font-weight: 700; fill: #0F3573; }
    .end-desc { font-family: -apple-system, 'Segoe UI', Helvetica, Arial, sans-serif; font-size: 12px; fill: #4A5568; }
    .danger-box { fill: #FEF2F2; stroke: #FCA5A5; stroke-width: 1; }
    .danger-title { font-family: -apple-system, 'Segoe UI', Helvetica, Arial, sans-serif; font-size: 14px; font-weight: 700; fill: #991B1B; }
    .warn-box { fill: #FFF7ED; stroke: #FDBA74; stroke-width: 1; }
    .warn-title { font-family: -apple-system, 'Segoe UI', Helvetica, Arial, sans-serif; font-size: 13px; font-weight: 700; fill: #92400E; }
</style>
    <marker id="arrowV" markerWidth="8" markerHeight="8" refX="4" refY="7" orient="auto">
      <path d="M0,0 L4,8 L8,0 Z" class="arrowhead"/>
    </marker>
    <marker id="arrowH" markerWidth="8" markerHeight="8" refX="7" refY="4" orient="auto">
      <path d="M0,0 L8,4 L0,8 Z" class="arrowhead"/>
    </marker>
    
  </defs>
  <circle cx="340.0" cy="360.0" r="95" fill="#EEF3FC" stroke="#C9D6EA"/>
  <text x="340.0" y="350.0" text-anchor="middle" class="title" font-size="15">🔄 Cải tiến</text>
  <text x="340.0" y="372.0" text-anchor="middle" class="title" font-size="15">liên tục</text>
  <text x="340.0" y="394.0" text-anchor="middle" class="desc" font-size="11">Sau mỗi kỳ thi</text>
  <path class="arrow" d="M340.0,110.0 Q482.4,164.0 577.8,282.7" marker-end="url(#arrowV)"/>
  <path class="arrow" d="M577.8,282.7 Q570.4,434.9 486.9,562.3" marker-end="url(#arrowV)"/>
  <path class="arrow" d="M486.9,562.3 Q340.0,602.3 193.1,562.3" marker-end="url(#arrowV)"/>
  <path class="arrow" d="M193.1,562.3 Q109.6,434.9 102.2,282.7" marker-end="url(#arrowV)"/>
  <path class="arrow" d="M102.2,282.7 Q197.6,164.0 340.0,110.0" marker-end="url(#arrowV)" stroke-dasharray="5,4"/>
  <g transform="translate(245.0,64.0)">
    <rect class="card" x="0" y="0" width="190" height="92" rx="10"/>
    <rect class="accent" x="0" y="0" width="190" height="5" rx="2"/>
    <text class="title" x="95.0" y="26" text-anchor="middle" font-size="13.5">1. Lưu trữ hồ sơ</text>
    <text class="desc" x="95.0" y="44" text-anchor="middle" font-size="11">Bài thi, biên bản,</text>
    <text class="desc" x="95.0" y="58" text-anchor="middle" font-size="11">Protokoll, kết quả và nhật</text>
    <text class="desc" x="95.0" y="72" text-anchor="middle" font-size="11">ký hệ thống.</text>
  </g>
  <g transform="translate(482.8,236.7)">
    <rect class="card" x="0" y="0" width="190" height="92" rx="10"/>
    <rect class="accent" x="0" y="0" width="190" height="5" rx="2"/>
    <text class="title" x="95.0" y="26" text-anchor="middle" font-size="13.5">2. Tổng hợp số liệu</text>
    <text class="desc" x="95.0" y="44" text-anchor="middle" font-size="11">Số lượng thí sinh, kết</text>
    <text class="desc" x="95.0" y="58" text-anchor="middle" font-size="11">quả, sự cố phát sinh.</text>
  </g>
  <g transform="translate(391.9,516.3)">
    <rect class="card" x="0" y="0" width="190" height="92" rx="10"/>
    <rect class="accent" x="0" y="0" width="190" height="5" rx="2"/>
    <text class="title" x="95.0" y="26" text-anchor="middle" font-size="13.5">3. Báo cáo &amp; họp tổng kết</text>
    <text class="desc" x="95.0" y="44" text-anchor="middle" font-size="11">Báo cáo Ban Lãnh đạo, họp</text>
    <text class="desc" x="95.0" y="58" text-anchor="middle" font-size="11">rút kinh nghiệm.</text>
  </g>
  <g transform="translate(98.1,516.3)">
    <rect class="card" x="0" y="0" width="190" height="92" rx="10"/>
    <rect class="accent" x="0" y="0" width="190" height="5" rx="2"/>
    <text class="title" x="95.0" y="26" text-anchor="middle" font-size="13.5">4. Đề xuất cải tiến</text>
    <text class="desc" x="95.0" y="44" text-anchor="middle" font-size="11">Tổng hợp, phân loại, xác</text>
    <text class="desc" x="95.0" y="58" text-anchor="middle" font-size="11">định tài liệu cần cập</text>
    <text class="desc" x="95.0" y="72" text-anchor="middle" font-size="11">nhật.</text>
  </g>
  <g transform="translate(7.2,236.7)">
    <rect class="card" x="0" y="0" width="190" height="92" rx="10"/>
    <rect class="accent" x="0" y="0" width="190" height="5" rx="2"/>
    <text class="title" x="95.0" y="26" text-anchor="middle" font-size="13.5">5. Cập nhật tài liệu</text>
    <text class="desc" x="95.0" y="44" text-anchor="middle" font-size="11">Handbook, Quy chế, Danh</text>
    <text class="desc" x="95.0" y="58" text-anchor="middle" font-size="11">mục rủi ro, Mẫu biểu &amp;</text>
    <text class="desc" x="95.0" y="72" text-anchor="middle" font-size="11">Checklist.</text>
  </g>
  <text x="221.1" y="182.4" text-anchor="middle" class="warn-title" font-size="11">chu kỳ kế tiếp</text>
</svg>